<?xml version="1.0" encoding="UTF-8"?>
<svg xmlns="http://www.w3.org/2000/svg" width="480" height="166" viewBox="0 0 480 166" font-family="'JetBrains Mono','Fira Code','Cascadia Mono','DejaVu Sans Mono',Menlo,Consolas,monospace" font-size="12" role="img" aria-label="Top languages">
<rect x="0.5" y="0.5" width="479" height="165" rx="10" fill="#ffffff" stroke="#d0d7de"/>
<text x="20" y="34" fill="#9a6700" font-size="14">Top Languages</text>
<clipPath id="bar"><rect x="20" y="54" width="440" height="10" rx="5.0"/></clipPath><g clip-path="url(#bar)">
<rect x="20.0" y="54" width="252.5" height="10" fill="#3572A5"/>
<rect x="272.5" y="54" width="124.8" height="10" fill="#3178c6"/>
<rect x="397.4" y="54" width="36.6" height="10" fill="#663399"/>
<rect x="434.0" y="54" width="15.1" height="10" fill="#f1e05a"/>
<rect x="449.1" y="54" width="10.9" height="10" fill="#e34c26"/>
</g>
<circle cx="25.0" cy="88.0" r="5" fill="#3572A5"/>
<text x="38.0" y="92.0" fill="#1f2328">Python</text>
<text x="226.0" y="92.0" fill="#afb8c1" text-anchor="end">57.4%</text>
<circle cx="25.0" cy="110.0" r="5" fill="#3178c6"/>
<text x="38.0" y="114.0" fill="#1f2328">TypeScript</text>
<text x="226.0" y="114.0" fill="#afb8c1" text-anchor="end">28.4%</text>
<circle cx="25.0" cy="132.0" r="5" fill="#663399"/>
<text x="38.0" y="136.0" fill="#1f2328">CSS</text>
<text x="226.0" y="136.0" fill="#afb8c1" text-anchor="end">8.3%</text>
<circle cx="245.0" cy="88.0" r="5" fill="#f1e05a"/>
<text x="258.0" y="92.0" fill="#1f2328">JavaScript</text>
<text x="446.0" y="92.0" fill="#afb8c1" text-anchor="end">3.4%</text>
<circle cx="245.0" cy="110.0" r="5" fill="#e34c26"/>
<text x="258.0" y="114.0" fill="#1f2328">HTML</text>
<text x="446.0" y="114.0" fill="#afb8c1" text-anchor="end">2.5%</text>
</svg>